<svg xmlns="http://www.w3.org/2000/svg" viewBox="0 0 1590.4 812.4" enable-background="new 0 0 1590.4 812.4"><circle cx="8.2" cy="-54.7" r="8.2" fill="none"/><circle cx="34.5" cy="-54.7" r="8.2" fill="none"/><circle cx="57" cy="-54.7" r="8.2" fill="none"/><rect x="283.2" y="44.4" fill="#EFEFEF" width="655.1" height="768"/><rect x="284.1" y="45.9" fill="#E9EAED" width="1023.1" height="766.6"/><rect x="283.9" y="45.9" fill="#E9EAED" width="185.3" height="768"/><rect x="354.5" y="59.9" fill="#ddd" width="104" height="15.5"/><rect x="330.9" y="113.9" opacity=".63" fill="#ddd" width="104" height="15.5"/><rect x="330.9" y="139.2" opacity=".63" fill="#ddd" width="92.3" height="15.5"/><rect x="330.9" y="162.6" opacity=".63" fill="#ddd" width="104" height="15.5"/><rect x="354.5" y="79.2" fill="#ddd" width="49.6" height="9.3"/><rect x="482.2" y="341.9" fill="#fff" width="497.9" height="202.8"/><rect x="496.6" y="351.8" fill="#EAEAEA" width="39.5" height="41"/><rect x="545.1" y="356.8" fill="#EAEAEA" width="218" height="15.5"/><rect x="545.1" y="378.5" fill="#EAEAEA" width="104" height="5.6"/><rect x="498.1" y="407.3" fill="#EAEAEA" width="306" height="15"/><rect x="498.1" y="431.8" fill="#EAEAEA" width="328.3" height="15"/><rect x="498.1" y="455.3" fill="#EAEAEA" width="293" height="15"/><rect x="482.2" y="494.6" fill="#ddd" width="497.9" height="50.1"/><rect x="493.1" y="504.1" fill="#EAEAEA" width="30.5" height="30.5"/><rect x="532.6" y="504.1" fill="#fff" width="429.5" height="30.5"/><rect x="482.2" y="570.2" fill="#fff" width="497.9" height="202.8"/><rect x="496.6" y="580.1" fill="#EAEAEA" width="39.5" height="41"/><rect x="545.1" y="585.1" fill="#EAEAEA" width="218" height="15.5"/><rect x="545.1" y="606.8" fill="#EAEAEA" width="104" height="5.6"/><rect x="498.1" y="635.6" fill="#EAEAEA" width="306" height="15"/><rect x="498.1" y="660.1" fill="#EAEAEA" width="328.3" height="15"/><rect x="498.1" y="683.6" fill="#EAEAEA" width="293" height="15"/><rect x="482.2" y="723" fill="#ddd" width="497.9" height="50.1"/><rect x="493.1" y="732.5" fill="#EAEAEA" width="30.5" height="30.5"/><rect x="532.6" y="732.5" fill="#fff" width="429.5" height="30.5"/><rect x="482.2" y="797.9" fill="#fff" width="497.9" height="12"/><rect x="482.2" y="14.7" fill="#fff" width="497.9" height="140.3"/><rect x="482.2" y="154.3" fill="#F6F7F8" width="497.9" height="140.3"/><rect x="496.6" y="24.5" fill="#EAEAEA" width="39.5" height="41"/><rect x="545.1" y="29.5" fill="#EAEAEA" width="218" height="15.5"/><rect x="528.6" y="227.2" fill="#ddd" width="309.1" height="15.5"/><rect x="513.4" y="195.6" fill="#ddd" width="109" height="15.5"/><rect x="494.2" y="195.6" fill="#ddd" width="12.6" height="15.5"/><rect x="627.4" y="195.6" fill="#ddd" width="54.5" height="15.5"/><rect x="545.1" y="51.2" fill="#EAEAEA" width="104" height="5.6"/><rect x="528.6" y="249.7" fill="#ddd" width="75.1" height="5.6"/><rect x="493.1" y="167.7" fill="#ddd" width="43" height="5.6"/><rect x="545.1" y="167.7" fill="#ddd" width="43" height="5.6"/><rect x="498.1" y="80" fill="#EAEAEA" width="306" height="15"/><rect x="498.1" y="104.5" fill="#EAEAEA" width="328.3" height="15"/><rect x="482.2" y="266.6" fill="#ddd" width="497.9" height="50.1"/><rect x="493.1" y="276.1" fill="#EAEAEA" width="30.5" height="30.5"/><rect x="493.6" y="227.5" fill="#ddd" width="30.5" height="30.5"/><rect x="532.6" y="276.1" fill="#fff" width="429.5" height="30.5"/><rect x="303.9" y="55.9" fill="#ddd" width="43.3" height="41.3"/><rect x="307.9" y="113.9" opacity=".63" fill="#ddd" width="17.7" height="15.5"/><rect x="307.9" y="139.2" opacity=".63" fill="#ddd" width="17.7" height="15.5"/><rect x="307.9" y="162.6" opacity=".63" fill="#ddd" width="17.7" height="15.5"/><rect x="330.9" y="215.9" opacity=".63" fill="#ddd" width="104" height="15.5"/><rect x="330.9" y="241.2" opacity=".63" fill="#ddd" width="86.3" height="15.5"/><rect x="330.9" y="264.6" opacity=".63" fill="#ddd" width="104" height="15.5"/><rect x="307.9" y="215.9" opacity=".63" fill="#ddd" width="17.7" height="15.5"/><rect x="307.9" y="241.2" opacity=".63" fill="#ddd" width="17.7" height="15.5"/><rect x="307.9" y="264.6" opacity=".63" fill="#ddd" width="17.7" height="15.5"/><rect x="330.9" y="287.9" opacity=".63" fill="#ddd" width="98.3" height="15.5"/><rect x="330.9" y="313.2" opacity=".63" fill="#ddd" width="104" height="15.5"/><rect x="330.9" y="336.6" opacity=".63" fill="#ddd" width="73.3" height="15.5"/><rect x="307.9" y="287.9" opacity=".63" fill="#ddd" width="17.7" height="15.5"/><rect x="307.9" y="313.2" opacity=".63" fill="#ddd" width="17.7" height="15.5"/><rect x="307.9" y="336.6" opacity=".63" fill="#ddd" width="17.7" height="15.5"/><rect x="330.9" y="391.2" opacity=".63" fill="#ddd" width="104" height="15.5"/><rect x="307.9" y="367.9" opacity=".63" fill="#ddd" width="94" height="15.5"/><rect x="307.9" y="541.1" opacity=".63" fill="#ddd" width="39.3" height="15.5"/><rect x="307.9" y="190.6" opacity=".63" fill="#ddd" width="104" height="15.5"/><rect x="330.9" y="416.6" opacity=".63" fill="#ddd" width="108.3" height="15.5"/><rect x="330.9" y="439.9" opacity=".63" fill="#ddd" width="104" height="15.5"/><rect x="307.9" y="391.2" opacity=".63" fill="#ddd" width="17.7" height="15.5"/><rect x="307.9" y="416.6" opacity=".63" fill="#ddd" width="17.7" height="15.5"/><rect x="307.9" y="439.9" opacity=".63" fill="#ddd" width="17.7" height="15.5"/><rect x="330.9" y="463.2" opacity=".63" fill="#ddd" width="98.3" height="15.5"/><rect x="330.9" y="488.6" opacity=".63" fill="#ddd" width="104" height="15.5"/><rect x="330.9" y="511.9" opacity=".63" fill="#ddd" width="73.3" height="15.5"/><rect x="307.9" y="463.2" opacity=".63" fill="#ddd" width="17.7" height="15.5"/><rect x="307.9" y="488.6" opacity=".63" fill="#ddd" width="17.7" height="15.5"/><rect x="307.9" y="511.9" opacity=".63" fill="#ddd" width="17.7" height="15.5"/><rect x="330.9" y="566.6" opacity=".63" fill="#ddd" width="104" height="15.5"/><rect x="330.9" y="591.9" opacity=".63" fill="#ddd" width="108.3" height="15.5"/><rect x="330.9" y="615.2" opacity=".63" fill="#ddd" width="104" height="15.5"/><rect x="307.9" y="566.6" opacity=".63" fill="#ddd" width="17.7" height="15.5"/><rect x="307.9" y="591.9" opacity=".63" fill="#ddd" width="17.7" height="15.5"/><rect x="307.9" y="615.2" opacity=".63" fill="#ddd" width="17.7" height="15.5"/><rect x="330.9" y="638.6" opacity=".63" fill="#ddd" width="98.3" height="15.5"/><rect x="330.9" y="663.9" opacity=".63" fill="#ddd" width="104" height="15.5"/><rect x="330.9" y="687.2" opacity=".63" fill="#ddd" width="73.3" height="15.5"/><rect x="307.9" y="638.6" opacity=".63" fill="#ddd" width="17.7" height="15.5"/><rect x="307.9" y="663.9" opacity=".63" fill="#ddd" width="17.7" height="15.5"/><rect x="307.9" y="687.2" opacity=".63" fill="#ddd" width="17.7" height="15.5"/><rect x="330.9" y="710.6" opacity=".63" fill="#ddd" width="98.3" height="15.5"/><rect x="330.9" y="735.9" opacity=".63" fill="#ddd" width="104" height="15.5"/><rect x="330.9" y="759.2" opacity=".63" fill="#ddd" width="73.3" height="15.5"/><rect x="307.9" y="710.6" opacity=".63" fill="#ddd" width="17.7" height="15.5"/><rect x="307.9" y="735.9" opacity=".63" fill="#ddd" width="17.7" height="15.5"/><rect x="307.9" y="759.2" opacity=".63" fill="#ddd" width="17.7" height="15.5"/><rect x="997.7" y="4.4" fill="#fff" width="279" height="805.5"/><rect x="1009.2" y="42.4" fill="#CAD7D7" stroke="#fff" stroke-miterlimit="10" width="256" height="129.2"/><rect x="1009.2" y="181.6" fill="#EBD68F" stroke="#fff" stroke-miterlimit="10" width="256" height="114.1"/><rect x="1009.2" y="306.6" fill="#D6DBC1" stroke="#fff" stroke-miterlimit="10" width="256" height="141.4"/><rect x="1009.2" y="458.1" fill="#EFC4CD" stroke="#fff" stroke-miterlimit="10" width="256" height="144.6"/><rect x="1009.2" y="612.5" fill="#D5D5D5" stroke="#fff" stroke-miterlimit="10" width="256" height="110"/><rect x="1009.2" y="733.3" fill="#C5DCDF" stroke="#fff" stroke-miterlimit="10" width="256" height="79.1"/><rect x="284.1" fill="#4A66A3" width="1022.2" height="45.9"/><rect x="323.2" y="9.4" fill="#fff" width="582" height="25"/><rect x="948.2" y="9.4" fill="#2E467C" width="23" height="25"/><rect x="979.2" y="14.4" fill="#2E467C" width="42" height="14"/><rect x="1032.2" y="14.4" fill="#2E467C" width="50" height="14"/><rect x="1137.2" y="11.4" fill="#2E467C" width="20" height="20"/><rect x="1170.2" y="11.4" fill="#2E467C" width="20" height="20"/><rect x="1203.2" y="11.4" fill="#2E467C" width="20" height="20"/><rect x="293.2" y="10.4" fill="#E9EAED" width="24" height="24"/><rect x="1021.2" y="195.8" fill="#E2BD71" width="178" height="21.7"/><rect x="1021.2" y="224.6" fill="#E2BD71" width="208" height="21.7"/><rect x="1021.2" y="254.3" fill="#E2BD71" width="198" height="8.9"/><rect x="1021.2" y="270.6" fill="#E2BD71" width="208" height="8.9"/><rect x="1021.2" y="54.6" fill="#A0B5B5" width="218" height="21.7"/><rect x="1021.2" y="133.7" fill="#A0B5B5" width="208" height="8.9"/><rect x="1021.2" y="149.7" fill="#A0B5B5" width="136" height="8.9"/><rect x="1021.2" y="85.8" fill="#A0B5B5" width="218" height="8.9"/><rect x="1021.2" y="101.8" fill="#A0B5B5" width="182" height="8.9"/><rect x="1021.2" y="117.7" fill="#A0B5B5" width="84" height="8.9"/><rect x="1021.2" y="322.3" fill="#B4BC92" width="136" height="21.7"/><rect x="1021.2" y="351.1" fill="#B4BC92" width="159" height="21.7"/><rect x="1021.2" y="380.8" fill="#B4BC92" width="218" height="8.9"/><rect x="1021.2" y="397.1" fill="#B4BC92" width="182" height="8.9"/><rect x="1021.2" y="413.4" fill="#B4BC92" width="198" height="8.9"/><rect x="1021.2" y="469.4" fill="#E5A5B5" width="178" height="21.7"/><rect x="1021.2" y="498.1" fill="#E5A5B5" width="84" height="21.7"/><rect x="1021.2" y="527.9" fill="#E5A5B5" width="208" height="8.9"/><rect x="1021.2" y="544.2" fill="#E5A5B5" width="182" height="8.9"/><rect x="1021.2" y="560.5" fill="#E5A5B5" width="222" height="8.9"/><rect x="1021.2" y="576.7" fill="#E5A5B5" width="198" height="8.9"/><rect x="1021.2" y="625.2" fill="#B2B2B2" width="218" height="21.7"/><rect x="1021.2" y="653.9" fill="#B2B2B2" width="204" height="21.7"/><rect x="1021.2" y="683.6" fill="#B2B2B2" width="218" height="8.9"/><rect x="1021.2" y="699.9" fill="#B2B2B2" width="232" height="8.9"/><rect x="1021.2" y="748" fill="#98BEC3" width="187" height="21.7"/><rect x="1021.2" y="797.4" fill="#98BEC3" width="218" height="8.9"/><rect x="1021.2" y="781.1" fill="#98BEC3" width="198" height="8.9"/><text transform="translate(1399.773 107.548)"><tspan x="0" y="0" font-family="'Helvetica-Bold'" font-size="33">Detta är</tspan><tspan x="-21.1" y="34" font-family="'Helvetica-Bold'" font-size="33">inte reklam</tspan></text><path fill="#1D1D1D" d="M1414.4 157.7s0 1.2-.1 3.3c-.1 2.1-.4 5.2-1.1 8.7-.7 3.6-1.9 7.7-3.8 11.8-1.8 4.2-4.2 8.4-7.2 12.3-3 3.9-6.4 7.4-9.9 10.2-3.5 2.9-7.2 5.1-10.4 6.8-1.6.9-3.1 1.5-4.5 2.1-.5.2-1 .4-1.4.6-.5.2-.8.3-.8.3l-2.9-7.9-17.8 19.7 26.8 5-2.9-7.9s.4-.1 1-.4c.5-.2 1-.4 1.6-.7 1.6-.7 3.4-1.4 5.2-2.4 3.8-1.9 8-4.6 12.1-7.9 4.1-3.3 8-7.4 11.5-11.9 3.4-4.5 6.2-9.4 8.3-14.2 2.1-4.8 3.5-9.6 4.4-13.7.8-4.1 1.1-7.7 1.3-10.1.1-2.5.1-3.9.1-3.9h-9.5z"/><text transform="translate(1371.773 339.996)"><tspan x="0" y="0" font-family="'Helvetica-Bold'" font-size="33">Detta är</tspan><tspan x="6.4" y="34" font-family="'Helvetica-Bold'" font-size="33">nyheter</tspan></text><path fill="#1D1D1D" d="M1390 295.7c1 1.8 1.8 3.5 2.4 5h10.2l-.1-.3c-.9-2.3-2.2-5.6-4.2-9.3-2-3.7-4.7-7.9-8.2-11.8-3.5-4-7.6-7.9-12.2-11.2-4.6-3.3-9.6-6-14.5-8s-9.7-3.2-13.8-4c-2.1-.4-4-.6-5.7-.8-.7-.1-1.3-.1-1.8-.1-.7-.1-1.1-.1-1.1-.1l.4-8.4-23.2 12.2 21.8 14.1.4-8.4s.3 0 .9.1c.4 0 .9.1 1.5.1 1.5.2 3.1.3 4.9.7 3.6.6 7.7 1.7 11.9 3.4s8.5 4.1 12.5 6.9c4 2.8 7.5 6.2 10.5 9.6 3.3 3.5 5.6 7.1 7.4 10.3z"/></svg>