<svg xmlns="http://www.w3.org/2000/svg" viewBox="0 0 1179.2 730.6" enable-background="new 0 0 1179.2 730.6"><path fill="#BC990A" d="M1068.8 310.1c30.5 15 47.7 29.9 70.3 55.2 23.4 26.2 40 60.1 40 77.9-33.3-31.3-65.7-37.3-65.7-37.3-4 28.7-18.6 74.1-18.6 74.1-14.7-43-45.2-77.6-85.9-97.6l59.9-72.3z"/><path fill="#BC990A" d="M110.3 310.1c-30.5 14.9-47.7 29.9-70.3 55.2-23.4 26.2-40 60.1-40 77.9 33.3-31.3 65.7-37.3 65.7-37.3 4 28.7 18.6 74.1 18.6 74.1 14.7-43 45.2-77.6 85.9-97.6l-59.9-72.3z"/><path fill="#A5880E" d="M131.9 377.4l37.9 5.4-59.4-72.7c-.1 0 21.7 49.2 21.5 67.3z"/><path fill="#CCAB0A" d="M131.9 377.4c23.3-36.1 56.1-65.1 95.8-84.1l-55.2-115.5c-42.4 20.3-80 48.2-111.7 83-14 15.4-26.5 31.7-37.6 49.1l108.7 67.5z"/><polygon fill="#B79508" points="163.2,257.8 227.7,293.3 207.4,250.8"/><path fill="#DDBF0E" d="M309.2 48c-47.7 47.7-111.1 74-178.5 74l32.5 135.8c50.6 0 83.3-8.7 130-27.6 48.4-19.6 75.8-48 113-85.2l-97-97z"/><polygon fill="#CCAB0A" points="309,48 268.2,133.3 334,199.1 363.1,101.9"/><path fill="#A5880E" d="M1047.3 377.4l-37.9 5.4 59.4-72.7s-21.7 49.2-21.5 67.3z"/><path fill="#CCAB0A" d="M1047.3 377.4c-23.3-36.1-56.1-65.1-95.8-84.1l55.2-115.5c42.4 20.3 80 48.2 111.7 83 14 15.4 26.5 31.7 37.6 49.1l-108.7 67.5z"/><polygon fill="#B79508" points="1016,257.8 951.5,293.3 971.8,250.8"/><path fill="#DDBF0E" d="M869.9 48c47.7 47.7 111.1 74 178.5 74l-32.4 135.8c-50.6 0-83.3-8.7-130-27.6-48.4-19.6-75.8-48-113-85.2l96.9-97z"/><polygon fill="#CCAB0A" points="870.1,48 911,133.3 845.1,199.1 816.5,100.2"/><path fill="#F2C900" d="M798 246.4c-55.7-55.7-129.7-86.4-208.3-86.4s-152.7 30.7-208.4 86.4l-113.1-113.1c43.4-43.4 94-77 150.5-99.9 54.4-22.2 111.9-33.4 171-33.4s116.5 11.2 171 33.3c56.4 22.9 107.1 56.5 150.5 99.9l-113.2 113.2z"/><g fill="#DDBF0E"><path d="M351.4 148.4l8-5.9c2.3-1.7 3.6-2.4 4.9-2.8 3.3-.9 6.7.2 9.2 3.5 1.8 2.4 2.6 6 1.2 8.8v.1s.6.2 1.9.7l10.4 4.7-6.3 4.7-9.8-4.7-2.6 2 5.8 7.7-5.6 4.2-17.1-23zm15.8 4.4c1.8-1.3 2.2-3.2.8-5-1.3-1.7-2.7-2.3-5.5-.2l-1.9 1.4 4.2 5.6 2.4-1.8zM376.5 130.3l15.1-9.6 3.2 5.1-9.2 5.9 2.8 4.4 7.4-4.7 3.2 5.1-7.4 4.7 2.9 4.6 9.7-6.2 3.2 5.1-15.6 9.9-15.3-24.3zM399.6 116l6.2-3.3 5.2 9.7 2.5-1.4v-12.5l6.6-3.5-.4 15.7v.1l14.3 9.2-6.9 3.7-10.8-7.4-2.5 1.4 5.5 10.2-6.2 3.3-13.5-25.2zM427.4 101.7l6.4-2.8 9.1 20.7 10.7-4.7 2.4 5.5-17.1 7.6-11.5-26.3zM473.6 107.5l-8.4 3 .4 6.2-6.8 2.4-.4-30.2 6.9-2.5 18.7 23.7-6.8 2.4-3.6-5zm-9.6-13.7s.4 3.2.6 5l.3 5.8 5.3-1.9-3.4-4.7c-1.1-1.5-2.8-4.2-2.8-4.2zM482.8 80.6l7.4-1.9 7 10.7c1.1 1.6 2.6 4.2 2.6 4.2h.1s.1-3 .2-4.9l1-12.7 7.4-1.9 9.3 27.1-6.8 1.7-4-12.3c-.7-2.1-1.2-4.7-1.2-4.7h-.1s-.2 3.1-.4 5l-.9 8.8-5.8 1.5-5-7.3c-1.1-1.6-2.7-4.3-2.7-4.3h-.1s.8 2.5 1.2 4.7l2.3 12.7-6.8 1.7-4.7-28.1zM538.1 91.8l-8.8 1.4-.7 6.2-7.1 1.1 5-29.8 7.3-1.2 14.2 26.7-7.1 1.1-2.8-5.5zm-7-15.2s-.1 3.2-.4 5l-.7 5.8 5.6-.9-2.5-5.2c-.8-1.7-1.9-4.7-2-4.7zM545.5 67.7l7.6-.6 6.4 15.8c.7 1.7 1.5 4.5 1.5 4.5h.1s.3-2.8.7-4.7l3.7-16.7 7.5-.6-7.6 29.4-7.3.6-12.6-27.7zM579.7 65.2l10.5-.1c5.7 0 9.7 2.5 9.8 7.4 0 2.4-1.1 4.8-3.3 6.1v.1c3.3 1 4.5 3.9 4.5 6.4 0 6.2-5.1 8.6-10.8 8.6l-10.4.1-.3-28.6zm10.7 11c1.8 0 2.5-1.3 2.5-2.7 0-1.3-.8-2.4-2.7-2.4h-3.5v5.1h3.7zm.7 11.5c2 0 3-1.4 3-3s-1-2.9-3-2.9h-4.2v5.9h4.2zM609.8 65.4l9.9.7c2.9.2 4.3.5 5.5 1.1 3.1 1.5 5 4.5 4.7 8.7-.2 3-1.9 6.2-4.8 7.5v.1s.4.5 1 1.8l4.8 10.4-7.8-.5-4.4-10-3.3-.2-.7 9.6-7-.5 2.1-28.7zm9.1 13.6c2.2.2 3.7-1 3.9-3.3.2-2.2-.6-3.5-4.1-3.7l-2.4-.2-.5 6.9 3.1.3zM653.7 69.4c8.5 1.3 13.8 8.7 12.5 16.8-1.3 8.3-8.6 13.8-17.1 12.5s-13.8-8.8-12.5-17.1c1.3-8.2 8.6-13.5 17.1-12.2zm-3.6 22.9c4.2.7 8.2-2.4 9-7.3.7-4.6-2.1-8.6-6.4-9.3-4.2-.7-8.2 2.3-8.9 6.9-.8 4.9 2.1 9 6.3 9.7zM680.7 81.3l-8.4-2.1 1.4-5.8 23.7 5.8-1.4 5.8-8.4-2.1-5.4 22-6.8-1.7 5.3-21.9zM708.7 89l-8.3-2.7 1.9-5.7 23.2 7.5-1.9 5.7-8.3-2.7-7 21.5-6.7-2.2 7.1-21.4zM735.4 116.5l-8.3-3.4-3.9 4.9-6.7-2.7 19.8-22.8 6.8 2.8-1.8 30.1-6.7-2.7.8-6.2zm1.9-16.6s-1.8 2.6-2.9 4.1l-3.6 4.5 5.2 2.1.6-5.8c.2-1.8.8-4.9.7-4.9zM758.5 101.9l8.9 4.5c2.6 1.3 3.8 2.1 4.7 3.1 2.3 2.6 2.9 6.1 1 9.8-1.4 2.7-4.1 5-7.3 5.1v.1s.1.6.2 2l.5 11.4-7-3.5-.2-10.9-2.9-1.5-4.3 8.6-6.3-3.1 12.7-25.6zm3.1 16.1c2 1 3.8.5 4.8-1.5 1-1.9.8-3.4-2.3-5l-2.1-1.1-3.1 6.2 2.7 1.4zM785.9 116.1l15.4 9.2-3.1 5.1-9.4-5.6-2.7 4.5 7.5 4.5-3.1 5.1-7.5-4.5-2.8 4.6 9.8 5.9-3.1 5.1-15.9-9.5 14.9-24.4zM809.1 130.4l5.8 4.1-1.3 15.5c-.2 2.2-.9 5.4-.9 5.4h.1s1.5-2.7 2.6-4.2l7.8-10.9 5.7 4.1-16.6 23.3-5.7-4.1 1.3-15.5c.2-2.2.9-5.4.9-5.4h-.1s-1.5 2.7-2.6 4.2l-7.7 10.8-5.7-4.1 16.4-23.2z"/></g><g fill="#FCFCFC"><path d="M351.4 146.1l8-5.9c2.3-1.7 3.6-2.4 4.9-2.8 3.3-.9 6.7.2 9.2 3.5 1.8 2.4 2.6 6 1.2 8.8v.1s.6.2 1.9.7l10.4 4.7-6.3 4.7-9.8-4.7-2.6 2 5.8 7.7-5.6 4.2-17.1-23zm15.8 4.4c1.8-1.3 2.2-3.2.8-5-1.3-1.7-2.7-2.3-5.5-.2l-1.9 1.4 4.2 5.6 2.4-1.8zM376.5 128l15.1-9.6 3.2 5.1-9.2 5.9 2.8 4.4 7.4-4.7 3.2 5.1-7.4 4.7 2.9 4.6 9.7-6.2 3.2 5.1-15.6 9.9-15.3-24.3zM399.6 113.7l6.2-3.3 5.2 9.7 2.5-1.4v-12.5l6.6-3.5-.4 15.7v.1l14.2 9.2-6.9 3.7-10.8-7.4-2.5 1.4 5.5 10.2-6.2 3.3-13.4-25.2zM427.4 99.4l6.4-2.8 9.1 20.7 10.7-4.7 2.4 5.5-17.1 7.6-11.5-26.3zM473.6 105.1l-8.4 3 .4 6.2-6.8 2.4-.4-30.2 6.9-2.5 18.7 23.7-6.8 2.4-3.6-5zm-9.6-13.6s.4 3.2.6 5l.3 5.8 5.3-1.9-3.4-4.7c-1.1-1.5-2.8-4.2-2.8-4.2zM482.8 78.3l7.4-1.9 7 10.7c1.1 1.6 2.6 4.2 2.6 4.2h.1s.1-3 .2-4.9l1-12.7 7.4-1.9 9.3 27.1-6.8 1.7-4-12.3c-.7-2.1-1.2-4.7-1.2-4.7h-.1s-.2 3.1-.4 5l-.9 8.8-5.8 1.5-5-7.3c-1.1-1.6-2.7-4.3-2.7-4.3h-.1s.8 2.5 1.2 4.7l2.3 12.7-6.8 1.7-4.7-28.1zM538.1 89.5l-8.8 1.4-.7 6.2-7.1 1.1 5-29.8 7.3-1.2 14.1 26.8-7.1 1.1-2.7-5.6zm-7-15.2s-.1 3.2-.4 5l-.7 5.8 5.6-.9-2.5-5.2c-.8-1.7-1.9-4.7-2-4.7zM545.5 65.4l7.6-.6 6.4 15.8c.7 1.7 1.5 4.5 1.5 4.5h.1s.3-2.8.7-4.7l3.7-16.7 7.5-.6-7.6 29.4-7.3.6-12.6-27.7zM579.7 62.9l10.5-.1c5.7 0 9.7 2.5 9.8 7.4 0 2.4-1.1 4.8-3.3 6.1v.1c3.3 1 4.5 3.9 4.5 6.4 0 6.2-5.1 8.6-10.8 8.6l-10.4.1-.3-28.6zm10.7 11c1.8 0 2.5-1.3 2.5-2.7 0-1.3-.8-2.4-2.7-2.4h-3.5v5.1h3.7zm.7 11.5c2 0 3-1.4 3-3s-1-2.9-3-2.9h-4.2v5.9h4.2zM609.8 63.1l9.9.7c2.9.2 4.3.5 5.5 1.1 3.1 1.5 5 4.5 4.7 8.7-.2 3-1.9 6.2-4.8 7.5v.1s.4.5 1 1.8l4.8 10.4-7.8-.5-4.4-10-3.3-.2-.7 9.6-7-.5 2.1-28.7zm9.1 13.6c2.2.2 3.7-1 3.9-3.3.2-2.2-.6-3.5-4.1-3.7l-2.4-.2-.5 6.9 3.1.3zM653.7 67.1c8.5 1.3 13.8 8.7 12.5 16.8-1.3 8.3-8.6 13.8-17.1 12.5s-13.8-8.8-12.5-17.1c1.3-8.2 8.6-13.5 17.1-12.2zm-3.6 22.9c4.2.7 8.2-2.4 9-7.3.7-4.6-2.1-8.6-6.4-9.3-4.2-.7-8.2 2.3-8.9 6.9-.8 4.9 2.1 9 6.3 9.7zM680.7 79l-8.4-2.1 1.4-5.8 23.7 5.8-1.4 5.8-8.4-2.1-5.4 22-6.8-1.7 5.3-21.9zM708.7 86.7l-8.3-2.7 1.9-5.7 23.2 7.5-1.9 5.7-8.3-2.7-7 21.5-6.7-2.2 7.1-21.4zM735.4 114.1l-8.3-3.4-3.9 4.9-6.7-2.7 19.8-22.8 6.8 2.8-1.8 30.1-6.7-2.7.8-6.2zm1.9-16.5s-1.8 2.6-2.9 4.1l-3.6 4.5 5.2 2.1.6-5.8c.2-1.8.8-4.9.7-4.9zM758.5 99.6l8.9 4.5c2.6 1.3 3.8 2.1 4.7 3.1 2.3 2.6 2.9 6.1 1 9.8-1.4 2.7-4.1 5-7.3 5.1v.1s.1.6.2 2l.5 11.4-7-3.5-.2-10.9-2.9-1.5-4.3 8.6-6.3-3.1 12.7-25.6zm3.1 16c2 1 3.8.5 4.8-1.5 1-1.9.8-3.4-2.3-5l-2.1-1.1-3.1 6.2 2.7 1.4zM785.9 113.8l15.4 9.2-3.1 5.1-9.4-5.6-2.7 4.5 7.5 4.5-3.1 5.1-7.5-4.5-2.8 4.6 9.8 5.9-3.1 5.1-15.9-9.5 14.9-24.4zM809.1 128.1l5.8 4.1-1.3 15.5c-.2 2.2-.9 5.4-.9 5.4h.1s1.5-2.7 2.6-4.2l7.8-10.9 5.7 4.1-16.6 23.3-5.7-4.1 1.3-15.5c.2-2.2.9-5.4.9-5.4h-.1s-1.5 2.7-2.6 4.2l-7.7 10.8-5.7-4.1 16.4-23.2z"/></g><polygon fill="#DDBF0E" points="348.2,213.3 407.4,188 436.3,203 429.7,207 353.2,218.6"/><circle fill="#007DA3" cx="592.1" cy="447.6" r="238.3"/><circle fill="#0EC2E0" cx="592.1" cy="447.6" r="229"/><path fill="#F2E2C9" d="M842.9 550.5v0c-.2-8.6-4-16-9.8-21l-113.2-97.6c-1.6 1.5-1.8 3.9-1 7.1-16.7 19-22.6 44-17.8 67.5h-21.4v42l13.2-2.5v2.1c0-7.4 6-15.9 13.5-15.9 4.1 0 6.9 1.6 10 4.5 1.9 2.4 3.9 4.6 6.1 6.8.8.8 2.7 2.5 2.7 2.5 16.9 15.4 38.8 24.5 60 22.5-8 10.2-13 23.1-13 37.1 0 22.2 12.6 41.5 29.6 52v31.9c-12 .7 17.7 10.9 17.7 10.9l13.6-9.8 9.6-135c.2-1.5.4-3.3.4-4.9v-.2c-.2.2-.2 0-.2 0z"/><polygon fill="#F2E2C9" points="832.7,690.9 777.5,730.6 727.5,722.5 759.2,668.1 785.4,672.8 808.9,657.8 808.9,657.8"/><path fill="#F2E2C9" d="M692.5 422.2c-7.6 0-14.7 1.9-21 5.3-13.3-24.2-39.1-40.7-68.7-40.8l-25.1 34.1v-34.1c-29 .1-54.6 16.6-68 40.8-6.3-3.4-13.2-5.3-20.8-5.3-24.3 0-44 19.7-44 44 0 23.5 15.4 25.3 29.2 43.9 4.5 6.1 9.5 15.2 9.5 23.1 0 28.3 42.3 37.1 50.6 62 1.3 3.9-19.1 17.2-19.1 21.2 0 36 151 36.1 151 .1 0-4-20.4-27.3-19.1-31.3 8.3-24.9 50.8-23.8 50.8-52.1 0-8 5-16.9 9.5-23.1 13.8-18.7 29.2-20.4 29.2-43.9 0-24.2-19.7-43.9-44-43.9z"/><path fill="#D6BC9A" d="M677 539.3c-.3 0-.7-.1-1-.2-1-.5-1.3-1.7-.8-2.7 4.4-8.2 11.8-14.1 20.7-16.7 8.9-2.6 18.3-1.6 26.5 2.8 1 .5 1.3 1.7.8 2.7-.5 1-1.7 1.3-2.7.8-7.2-3.9-15.5-4.8-23.4-2.5-7.9 2.3-14.4 7.6-18.3 14.8-.4.6-1.1 1-1.8 1z"/><polygon fill="#F2E2C9" points="340.7,219.5 403.7,194 450.4,213.7 406.7,259 382.4,248.3 356,257.3 356,257.3"/><path fill="#D6BC9A" d="M498.5 526.4h-.1c-1.1-.1-2-1-1.9-2.1.8-16.9-12.3-31.4-29.2-32.2-1.1-.1-2-1-1.9-2.1.1-1.1 1-2 2.1-1.9 19.1.9 33.9 17.3 33 36.4-.1 1-.9 1.9-2 1.9z"/><path d="M749.1 494.7c-3.1 0-6.3-1.2-8.7-3.6-.6-.6-.6-1.5 0-2.1.6-.6 1.5-.6 2.1 0 3.6 3.6 9.4 3.6 13 0 3.6-3.6 3.6-9.4 0-13-.6-.6-.6-1.5 0-2.1.6-.6 1.5-.6 2.1 0 4.7 4.8 4.7 12.5-.1 17.3-2.2 2.3-5.3 3.5-8.4 3.5zM756.2 491.3c-.4 0-.8-.1-1.1-.4l-18.4-18.5c-.6-.6-.6-1.5 0-2.1.6-.6 1.5-.6 2.1 0l18.4 18.5c.6.6.6 1.5 0 2.1-.3.3-.6.4-1 .4zM738.5 481.3c-.4 0-.8-.1-1.1-.4-.6-.6-.6-1.5 0-2.1l7.8-7.8c.6-.6 1.5-.6 2.1 0 .6.6.6 1.5 0 2.1l-7.8 7.8c-.3.3-.7.4-1 .4z"/><path fill="#D6BC9A" d="M526.4 406.6s4.2 11.2 33 29c18.8 11.7 40.2 12.4 58.3 2.7 25.7-13.8 36.6-32 36.6-32"/><path fill="#F2E2C9" d="M514.9 344.5c-7.9 1-15.1-4.6-16.1-12.5-1-7.9 4.6-15.1 12.5-16.1"/><path fill="#F2E2C9" d="M670.4 358.2c0 44.2-35.9 80.1-80.1 80.1s-80.1-35.9-80.1-80.1c0 0 .1-38.7.2-40.4 2.6-41.9 37.4-75 79.9-75 41.9 0 76.3 32.2 79.8 73.1l.3 42.3z"/><path fill="#fff" d="M534.3 297.2c1.9 6.6 8.8 10.4 15.3 8.5s10.4-8.8 8.5-15.3"/><path fill="#0EC2E0" d="M547.2 302c3.8 0 6.8-3 6.8-6.8 0-1.2-.3-2.4-.9-3.4l-12.7 3.6c.1 3.7 3.1 6.6 6.8 6.6z"/><path fill="#fff" d="M646.3 297.2c-1.9 6.6-8.8 10.4-15.3 8.5-6.6-1.9-10.4-8.8-8.5-15.3"/><path fill="#0EC2E0" d="M633.4 302c-3.8 0-6.8-3-6.8-6.8 0-1.2.3-2.4.9-3.4l12.7 3.6c-.1 3.7-3.1 6.6-6.8 6.6z"/><path fill="#D6BC9A" d="M598.2 304.2c-1.1 0-2-.9-2-2 0-3.3-2.7-6-6-6s-6 2.7-6 6c0 1.1-.9 2-2 2s-2-.9-2-2c0-5.5 4.5-10 10-10s10 4.5 10 10c0 1.1-.9 2-2 2z"/><path fill="#F2E2C9" d="M666.7 344.5c7.9 1 15.1-4.6 16.1-12.5 1-7.9-4.6-15.1-12.5-16.1"/><circle fill="#B55433" cx="590.4" cy="333.1" r="10.5"/><path fill="#fff" d="M590.7 334.7c0 1-.8 1.8-1.8 1.8h-.4c-1 0-1.8-.8-1.8-1.8v-4.4c0-1 .8-1.8 1.8-1.8h.4c1 0 1.8.8 1.8 1.8v4.4z"/><path fill="#fff" d="M594.7 334.7c0 1-.8 1.8-1.8 1.8h-.4c-1 0-1.8-.8-1.8-1.8v-4.4c0-1 .8-1.8 1.8-1.8h.4c1 0 1.8.8 1.8 1.8v4.4z"/><path fill="#42180D" d="M658.3 301.5c1.4 1.9 2.2 4.3 2.2 6.8 0 6.6-5.3 11.9-11.9 11.9-2.6 0-5.2-.6-7.2-2-13.9-13.4-34.2-16.2-50.8-8.5-16.6-7.7-36.9-4.8-50.8 8.5-2 1.4-4.6 2-7.2 2-6.6 0-11.9-5.3-11.9-11.9 0-2.5.8-4.9 2.2-6.8-13.2 13.3-13.2 34.9.1 48.2 13.3 13.3 34.9 13.3 48.3 0l19.4-18.3 19.4 18.3c13.3 13.3 34.9 13.3 48.3 0 13.1-13.3 13.1-34.8-.1-48.2z"/><circle fill="#F2E2C9" cx="680.7" cy="322.1" r="3.2"/><circle fill="#F2E2C9" cx="673.7" cy="341.1" r="3.2"/><circle fill="#F2E2C9" cx="679.1" cy="328.5" r="4.8"/><circle fill="#F2E2C9" cx="674.1" cy="318.5" r="4.8"/><circle fill="#F2E2C9" cx="502.5" cy="320.1" r="3.2"/><circle fill="#F2E2C9" cx="506.5" cy="341.1" r="3.2"/><circle fill="#F2E2C9" cx="502.1" cy="325.5" r="4.8"/><circle fill="#F2E2C9" cx="509.6" cy="344" r="2.4"/><circle fill="#F2E2C9" cx="508.1" cy="320.5" r="4.8"/><path fill="#D6BC9A" d="M533.3 298.2c-.8 0-1.6-.5-1.9-1.4-.3-1.1.2-2.2 1.3-2.5l24.8-7.9c1-.3 2.2.2 2.5 1.3.3 1.1-.2 2.2-1.3 2.5l-24.8 7.9c-.2.1-.4.1-.6.1z"/><path fill="#42180D" d="M619.7 272.5s-3.5 7.5 0 10.5l29.5 9.2s-1-19.2-29.5-19.7z"/><path fill="#42180D" d="M560.6 272.5s3.5 7.5 0 10.5l-29.5 9.2s1-19.2 29.5-19.7z"/><path fill="#D6BC9A" d="M648.1 298.2c-.2 0-.4 0-.6-.1l-24.8-7.9c-1.1-.3-1.6-1.5-1.3-2.5.3-1.1 1.5-1.6 2.5-1.3l24.8 7.9c1.1.3 1.6 1.5 1.3 2.5-.3.9-1.1 1.4-1.9 1.4z"/><path fill="#D6BC9A" d="M510.7 316.4s-2.6-.7-2.4 2.7c.3 5.3 2.4 21.6 2.4 21.6v-24.3z"/><path fill="#D6BC9A" d="M669.7 315.4s2.6-.7 2.4 2.7c-.3 5.3-2.4 21.6-2.4 21.6v-24.3z"/><path fill="#D6BC9A" d="M594.7 352.5h-8c-1.1 0-2-.9-2-2s.9-2 2-2h8c1.1 0 2 .9 2 2s-.9 2-2 2z"/><path fill="#DB3003" d="M666.5 592.2c8-23.9 30-29.2 31.7-55.7-12.8-12.6-21.5-29.4-23.5-48.2v-62.1l-9-7.3s.2 24.4.2 24.7c0 34.8-27.9 62.9-62.7 62.9h-24.7c-34.8 0-63.3-28.1-63.3-62.9 0-.3-.5-24.7-.5-24.7l-8 7.3v62.1c-2 18.8-10.6 35.6-23.4 48.2 1.6 26.5 23.7 31.8 31.8 55.7.1.4.3.9.3 1.3-2.9 3.2-4.7 7.4-4.7 12.1 0 4.5 1.3 8.5 4 11.7 5.8 29.7 32 52.3 63 52.3h25c31 0 57.8-22.5 63.6-52.3 2.7-3.1 4.5-7.2 4.5-11.7 0-4.7-1.7-8.9-4.6-12.1 0-.5.2-.9.3-1.3z"/><path fill="#911B03" d="M511.2 610.5c.6 2.5 1.8 4.9 3.4 6.8l.3 1.2h151.1l.3-1.2c1.7-1.9 3-4.3 3.8-6.8 0 0-8.2 4-78.9 4.7-74.9.8-80-4.7-80-4.7z"/><path fill="#A54830" d="M548.9 638.2c0-23.3 18.9-42.2 42.2-42.2s42.2 18.9 42.2 42.2"/><g fill="#F2E2C9"><path d="M404.7 213.9c6.2-4.2 7.8-9.6 0 0zM451.8 375c-17.2-17.2-40.3-24.7-62.7-22.6 8-10.2 12.6-23.1 12.6-37.1 0-22.2-12-41.5-30-52v-31.9c12-.7 24.2-6.4 32.4-16.7.2-.3.5-.6.7-.8-5.1 3.5-13.2 6.2-21.7-.6l-40.7 7.2-1.7-1v10.8l-9.3 135c-.2 1.5-.3 3-.3 4.6l.1.5v.2h-.1c.2 8.4 3.6 15.9 9.6 21.1l114.6 99.4-2.1-3.9c29.8-30.7 28.9-81.8-1.4-112.2z"/></g><path fill="#D6BC9A" d="M385.3 357.5s2.3-1.4 8.8-2.7c8.5-1.8 16-1.5 16-1.5-6.9-2.1-20.9-.8-20.9-.8l-3.9 5z"/><path fill="#D6BC9A" d="M785.1 568.5h6.3s-13.3 9-18.4 27c0 .1 5.9-23 12.1-27z"/><path fill="#472E1F" d="M513.7 617.5v45.7c25 8.7 50.2 13.4 77.4 13.4 26.5 0 52.6-4.5 75.6-12.8v-46.3h-153z"/><g fill="#42180D"><path d="M522.7 617.5h-9v45.7c3 1.1 6.1 2.1 9.2 3l-.2-48.7zM657.7 666.8c3-.9 6-1.9 9-3v-46.3h-9v49.3z"/></g><path fill="#A54830" d="M500.8 569.7s12.4 7.9 17.1 19.8c.4 1.1-.6 2.6-.6 2.6l-1.9 1.4s-2.2-9.1-7.9-15.7c-5.7-6.7-6.7-8.1-6.7-8.1z"/><path fill="#911B03" d="M500.8 569.7s12.4 7.9 17.1 19.8c.4 1.1-.6 2.6-.6 2.6l-1.9 1.4s-2.2-9.1-7.9-15.7c-5.7-6.7-6.7-8.1-6.7-8.1z"/><path fill="#911B03" d="M680.9 569.7s-12.4 7.9-17.1 19.8c-.4 1.1.6 2.6.6 2.6l1.9 1.4s2.2-9.1 7.9-15.7c5.7-6.7 6.7-8.1 6.7-8.1z"/><path fill="#911B03" d="M568.7 581.6s8.5-6.9 22.2-6.9c14.7 0 23.2 6.9 23.2 6.9s-23.3-6.9-45.4 0z"/><circle fill="#F2C900" cx="591.1" cy="638.2" r="39.7"/><circle fill="#FFDA00" cx="591.1" cy="638.2" r="33.6"/></svg>